<svg xmlns="http://www.w3.org/2000/svg" viewBox="0 0 163 1118"><defs><style>.cls-1{fill:#fff;}.cls-2{fill:#e5e5e5;}</style></defs><title>class_list</title><g id="图层_2" data-name="图层 2"><g id="图层_1-2" data-name="图层 1"><rect class="cls-1" width="163" height="1118"/><rect class="cls-2" x="26.5" y="23" width="110" height="29"/><rect class="cls-2" x="27" y="91.53" width="110" height="29"/><rect class="cls-2" x="26.5" y="160.07" width="110" height="29"/><rect class="cls-2" x="27" y="228.6" width="110" height="29"/><rect class="cls-2" x="26.5" y="297.13" width="110" height="29"/><rect class="cls-2" x="27" y="365.67" width="110" height="29"/><rect class="cls-2" x="26.5" y="434.2" width="110" height="29"/><rect class="cls-2" x="27" y="502.73" width="110" height="29"/><rect class="cls-2" x="26.5" y="571.27" width="110" height="29"/><rect class="cls-2" x="27" y="639.8" width="110" height="29"/><rect class="cls-2" x="26.5" y="708.33" width="110" height="29"/><rect class="cls-2" x="27" y="776.87" width="110" height="29"/><rect class="cls-2" x="26.5" y="845.4" width="110" height="29"/><rect class="cls-2" x="27" y="913.93" width="110" height="29"/><rect class="cls-2" x="26.5" y="982.47" width="110" height="29"/><rect class="cls-2" x="27" y="1051" width="110" height="29"/></g></g></svg>