<svg xmlns="http://www.w3.org/2000/svg" viewBox="0 0 720 174"><defs><style>.cls-1{fill:#fff;}.cls-2{fill:#e5e5e5;}</style></defs><title>brand</title><g id="图层_2" data-name="图层 2"><g id="图层_8" data-name="图层 8"><rect class="cls-1" width="720" height="174"/><rect class="cls-2" x="36.5" y="20.5" width="90" height="90" rx="14.28" ry="14.28"/><rect class="cls-2" x="36.5" y="124.5" width="90" height="28.56" rx="14.28" ry="14.28"/><rect class="cls-2" x="175.75" y="20.5" width="90" height="90" rx="14.28" ry="14.28"/><rect class="cls-2" x="175.75" y="124.5" width="90" height="28.56" rx="14.28" ry="14.28"/><rect class="cls-2" x="315" y="20.5" width="90" height="90" rx="14.28" ry="14.28"/><rect class="cls-2" x="315" y="124.5" width="90" height="28.56" rx="14.28" ry="14.28"/><rect class="cls-2" x="454.25" y="20.5" width="90" height="90" rx="14.28" ry="14.28"/><rect class="cls-2" x="454.25" y="124.5" width="90" height="28.56" rx="14.28" ry="14.28"/><rect class="cls-2" x="593.5" y="20.5" width="90" height="90" rx="14.28" ry="14.28"/><rect class="cls-2" x="593.5" y="124.5" width="90" height="28.56" rx="14.28" ry="14.28"/></g></g></svg>