<svg xmlns="http://www.w3.org/2000/svg" viewBox="0 0 750 482.5"><defs><style>.cls-1{fill:#fff;}.cls-2{fill:none;stroke:#e2e2e2;stroke-miterlimit:10;}.cls-3{fill:#e2e2e2;}</style></defs><title>goods_1</title><g id="图层_2" data-name="图层 2"><g id="图层_8" data-name="图层 8"><rect class="cls-1" width="750" height="482.5"/><rect class="cls-2" x="15" y="11.25" width="350" height="460" rx="10" ry="10"/><rect class="cls-2" x="31" y="403.25" width="117" height="51"/><rect class="cls-2" x="31" y="346.25" width="318" height="34"/><rect class="cls-2" x="165" y="403.25" width="93" height="51"/><rect class="cls-2" x="275" y="403.25" width="74" height="51"/><path class="cls-3" d="M252.2,106.44H123a12,12,0,0,0-12.29,12v121.8A12.42,12.42,0,0,0,123,252.7H253.22c6.76,0,11.78-5.62,11.78-12.48V118.42c0-6.88-6-12-12.8-12ZM159.08,126a19.64,19.64,0,1,1-19.39,19.65A19.51,19.51,0,0,1,159.08,126ZM135.8,233.57a6,6,0,0,1-4-1.5,6.31,6.31,0,0,1-.67-8.8l28.56-36.79a6.07,6.07,0,0,1,8.32-1L184.82,204l41.36-50.86c2.11-2.7,13-15.39,19.59-1,0,0,0,16.28,0,35.71,0,20.3,0,45.71,0,45.71-.15,0-110,0-110,0Z"/><rect class="cls-2" x="385" y="11.25" width="350" height="460" rx="10" ry="10"/><rect class="cls-2" x="401" y="403.25" width="117" height="51"/><rect class="cls-2" x="401" y="346.25" width="318" height="34"/><rect class="cls-2" x="535" y="403.25" width="93" height="51"/><rect class="cls-2" x="645" y="403.25" width="74" height="51"/><path class="cls-3" d="M622.2,106.44H493a12,12,0,0,0-12.29,12v121.8A12.42,12.42,0,0,0,493,252.7H623.22c6.76,0,11.78-5.62,11.78-12.48V118.42c0-6.88-6-12-12.8-12ZM529.08,126a19.64,19.64,0,1,1-19.39,19.65A19.51,19.51,0,0,1,529.08,126ZM505.8,233.57a6,6,0,0,1-4-1.5,6.31,6.31,0,0,1-.67-8.8l28.56-36.79a6.07,6.07,0,0,1,8.32-1L554.82,204l41.36-50.86c2.11-2.7,13-15.39,19.59-1,0,0,0,16.28,0,35.71,0,20.3,0,45.71,0,45.71-.15,0-110,0-110,0Z"/></g></g></svg>