<svg xmlns="http://www.w3.org/2000/svg" viewBox="0 0 300 300"><defs><style>.cls-1{fill:#3c5078;}</style></defs><title>depressed</title><g id="图层_2" data-name="图层 2"><g id="图层_8" data-name="图层 8"><path class="cls-1" d="M150,0C67.29,0,0,67.29,0,150S67.29,300,150,300s150-67.29,150-150S232.71,0,150,0Zm0,288.46C73.65,288.46,11.54,226.35,11.54,150S73.65,11.54,150,11.54,288.46,73.65,288.46,150,226.35,288.46,150,288.46Z"/><path class="cls-1" d="M103.24,133.44l-1.93.66-1.88.6c-2.39.75-4.81,1.38-7.26,1.91a65.22,65.22,0,0,1-27.86,0q-3.68-.78-7.26-1.91l-1.88-.6-1.92-.66c-.63-.25-1.3-.47-2-.71s-1.34-.5-2.06-.73c.25.7.55,1.37.86,2.05s.7,1.3,1.08,1.93.82,1.21,1.25,1.82.93,1.15,1.41,1.72a30,30,0,0,0,6.93,5.69,34.62,34.62,0,0,0,35,0,29.58,29.58,0,0,0,6.93-5.69c.49-.57,1-1.12,1.41-1.72s.87-1.19,1.26-1.82.74-1.28,1.07-1.93a21.83,21.83,0,0,0,.86-2.06c-.73.22-1.4.48-2.06.73S103.87,133.2,103.24,133.44Z"/><path class="cls-1" d="M184.93,225.62H118.3a7,7,0,0,0,0,14h66.63a7,7,0,0,0,0-14Z"/><path class="cls-1" d="M248.72,132.74c-.67.24-1.34.46-2,.7l-1.92.66-1.88.6c-2.39.75-4.81,1.38-7.26,1.91a65.22,65.22,0,0,1-27.86,0c-2.44-.52-4.87-1.16-7.26-1.91l-1.88-.6-1.92-.66c-.63-.25-1.3-.47-2-.71s-1.33-.5-2.06-.73c.25.7.55,1.37.86,2.05s.7,1.3,1.08,1.93.83,1.21,1.26,1.82.92,1.15,1.4,1.72a30.25,30.25,0,0,0,6.93,5.69,34.62,34.62,0,0,0,35,0,29.38,29.38,0,0,0,6.93-5.69c.49-.57,1-1.12,1.41-1.72s.87-1.19,1.26-1.82.74-1.28,1.08-1.93.61-1.35.85-2.06C250.05,132.23,249.38,132.49,248.72,132.74Z"/></g></g></svg>