<svg xmlns="http://www.w3.org/2000/svg" viewBox="0 0 300 300"><defs><style>.cls-1{fill:#3c5078;}.cls-2{fill:#e81259;}</style></defs><title>error</title><g id="图层_2" data-name="图层 2"><g id="图层_8" data-name="图层 8"><path class="cls-1" d="M300,150A150,150,0,1,0,150,300,150,150,0,0,0,300,150Z"/><path class="cls-2" d="M94.26,227.09A15.67,15.67,0,0,1,72,205l55.43-55.43L72,94.31A15.72,15.72,0,1,1,94.26,72.07l55.27,55.43L205,72.07A15.67,15.67,0,1,1,227,94.31l-55.27,55.27L227,205A15.66,15.66,0,1,1,205,227.09l-55.43-55.28Z"/></g></g></svg>