<svg xmlns="http://www.w3.org/2000/svg" viewBox="0 0 150 150"><defs><style>.cls-1{opacity:0.46;}.cls-2{fill:#fff;}.cls-3{fill:#14a83b;}.cls-4{fill:#0e6eb8;}</style></defs><title>logo</title><g id="图层_2" data-name="图层 2"><g id="图层_1-2" data-name="图层 1"><g class="cls-1"><circle class="cls-2" cx="75" cy="75" r="75"/></g><circle class="cls-3" cx="75" cy="75" r="67.9"/><path class="cls-4" d="M75,7.1A67.94,67.94,0,0,0,10.75,97a.11.11,0,0,1,0,0c.36.82,6.55,14.09,23.78,13.69,18.56-.44,23.85-10.07,40.45-9.42,16.6-.65,21.89,9,40.45,9.42,17.23.4,23.42-12.87,23.78-13.69l0,0A67.94,67.94,0,0,0,75,7.1Z"/><path class="cls-3" d="M59.88,60.19S47,42.94,48,38.36s-8.39-.84-8.39-.84S47,59.35,53.94,67.63C58.8,66.45,59.88,60.19,59.88,60.19Z"/><path class="cls-3" d="M48.65,88s5.33,6,19.7-5.71S94.7,61.71,104.8,37.55c4.46-2.82,6.34,4.83,6.34,4.83s-11,24.47-22.4,34.13S64.27,97,61.57,97.28,46.32,98.6,46.32,98.6Z"/><path class="cls-3" d="M102.72,91.22A67.42,67.42,0,0,1,63.79,63.88c-6.69,3.2-6.62,7.77-6.62,7.77S77.29,92,88.26,96.88s14.87,1.72,14.87,1.72Z"/><path class="cls-2" d="M52.86,66.24S34.09,46.21,37,32s28.21.94,32.27,5.69C73.93,43.15,75,50.7,72.16,56c-1.89,3.49-24.95,28.21-21.54,35.87C52.47,96,56.91,99.63,75,87.92c-4.21,5.82-27,20.57-34.72,11.38C31.55,88.9,58.18,60.32,61.7,55s4.18-8.7-1.51-12.13-15.79-6-16.53-1.43C43,45.48,45.84,55.49,52.86,66.24Z"/><path class="cls-2" d="M97.14,66.24S115.91,46.21,113,32,84.77,33,80.72,37.72C76.07,43.15,75,50.7,77.84,56c1.89,3.49,25,28.21,21.54,35.87C97.53,96,93.09,99.63,75,87.92c4.21,5.82,27,20.57,34.72,11.38,8.73-10.4-17.9-39-21.42-44.34s-4.18-8.7,1.51-12.13,15.8-6,16.53-1.43C107,45.48,104.16,55.49,97.14,66.24Z"/><path class="cls-2" d="M42.16,119.92H40.38a1.22,1.22,0,0,0-1.4-1.31c-.91.06-1.38.43-1.41,1.12s.45,1,1.36,1.17a.8.8,0,0,0,.23,0,.88.88,0,0,1,.24,0c2,.4,3,1.2,3,2.39,0,1.81-1.27,2.75-3.7,2.81q-3.37,0-3.33-2.86h1.87a1.4,1.4,0,0,0,1.46,1.59c1.12,0,1.7-.4,1.73-1.12s-.55-1-1.64-1.22a1.42,1.42,0,0,1-.33-.09c-1.9-.44-2.86-1.24-2.86-2.39q.15-2.69,3.61-2.86C41.09,117.34,42.07,118.23,42.16,119.92Z"/><path class="cls-2" d="M45.59,126.11H43.76v-8.68h1.83v3.43h3.28v-3.43h1.87v8.68H48.91v-3.8H45.59Z"/><path class="cls-2" d="M58.1,117.43H60v5.44q-.15,3.24-3.75,3.33-3.7-.09-3.8-3.33v-5.44h1.88v4.74c-.13,1.9.51,2.83,1.92,2.76s2-.86,1.87-2.76Z"/><path class="cls-2" d="M62.79,126.11H61l3.14-8.68h2.2l3.05,8.68H67.52l-.65-1.83H63.45Zm1.12-3.29H66.4l-1.17-3.7h0Z"/><path class="cls-2" d="M78.12,126.11H75.45l-3.38-7.22,0,0v7.18H70.29v-8.68h2.77l3.28,6.85,0,0v-6.8h1.74Z"/><path class="cls-2" d="M85.43,122.92H83.74v-1.46h3.52v4.36a6.62,6.62,0,0,1-1.92.29,17.27,17.27,0,0,1-2,.09q-4-.24-4.08-4.41c.06-2.84,1.42-4.36,4.08-4.54,2.72,0,4.06.93,4,2.81h-2c0-1-.58-1.45-1.73-1.45-1.6,0-2.41,1.09-2.44,3.18s.84,3.11,2.44,3.14a9,9,0,0,0,1.64-.18s0,0,.09,0Z"/><path class="cls-2" d="M90.82,126.11H89v-8.68h1.83v3.43H94.1v-3.43H96v8.68H94.15v-3.8H90.82Z"/><path class="cls-2" d="M103.34,117.43h1.87v5.44q-.13,3.24-3.75,3.33c-2.47-.06-3.73-1.17-3.8-3.33v-5.44h1.88v4.74c-.13,1.9.52,2.83,1.92,2.76s2-.86,1.88-2.76Z"/><path class="cls-2" d="M108,126.11h-1.78l3.14-8.68h2.21l3,8.68h-1.87l-.66-1.83h-3.42Zm1.13-3.29h2.48l-1.17-3.7h0Z"/></g></g></svg>